<?xml version="1.0" encoding="UTF-8"?>
<svg id="Layer_2" xmlns="http://www.w3.org/2000/svg" xmlns:xlink="http://www.w3.org/1999/xlink" viewBox="0 0 1161.86 815.38">
  <defs>
    <style>
      .cls-1 {
        fill: url(#linear-gradient-2);
      }

      .cls-2 {
        fill: url(#linear-gradient-4);
      }

      .cls-3 {
        fill: url(#linear-gradient-3);
      }

      .cls-4 {
        fill: url(#linear-gradient-5);
      }

      .cls-5 {
        stroke: #000;
      }

      .cls-5, .cls-6 {
        fill: none;
        stroke-miterlimit: 10;
        stroke-width: 13.03px;
      }

      .cls-7 {
        fill: url(#linear-gradient-6);
      }

      .cls-6 {
        stroke: #fff;
      }

      .cls-8 {
        fill: url(#linear-gradient);
      }
    </style>
    <linearGradient id="linear-gradient" x1="1026.26" y1="-460.4" x2="-355.21" y2="895.84" gradientUnits="userSpaceOnUse">
      <stop offset="0" stop-color="#556a00"/>
      <stop offset=".42" stop-color="#ad00ff"/>
      <stop offset=".72" stop-color="#1b3b7b"/>
      <stop offset="1" stop-color="#380000"/>
    </linearGradient>
    <linearGradient id="linear-gradient-2" x1="1149.64" y1="-343.38" x2="-233.16" y2="1014.18" xlink:href="#linear-gradient"/>
    <linearGradient id="linear-gradient-3" x1="1215.79" y1="-260.64" x2="-191.61" y2="1121.07" xlink:href="#linear-gradient"/>
    <linearGradient id="linear-gradient-4" x1="1276.96" y1="-225.6" x2="-107.91" y2="1133.98" xlink:href="#linear-gradient"/>
    <linearGradient id="linear-gradient-5" x1="1363.56" y1="-114.35" x2="-43.84" y2="1267.36" xlink:href="#linear-gradient"/>
    <linearGradient id="linear-gradient-6" x1="1449.22" y1="-66.66" x2="37.88" y2="1318.92" xlink:href="#linear-gradient"/>
  </defs>
  <g id="Layer_1-2" data-name="Layer_1">
    <g>
      <path d="M181.79,584.79c.14-7.4-1.85-13.87-8.22-13.83-1.88.01-3.76.03-5.64.05,1.14,67.1,2.32,134.58,3.53,202.44.02,1.04-.28,1.91-.67,1.95-11.13,1.13-22.26,3.52-33.39,7.15-.39.13-.86-.63-1.07-1.68C88.18,526.31,44.92,268.59,6.53,7.71c-.16-1.08,1.1-1.5,2.81-.94,57.29,18.7,114.57,29.88,171.86,33.56,56.58,3.52,96.86,7.31,120.52,21.61,23.81,13.96,31.01,38.41,24.93,75.44-17.61,108.22-36.13,217.07-55.56,326.52-4.63,25.46-18.13,46.99-39.78,55.61-1.46.58-1.79,2.65-.55,3.36,17.23,9.67,23.93,33.46,18.94,59.75-11.7,64.01-23.71,128.22-36.03,192.64-.2,1.04-.68,1.83-1.06,1.76-11.13-1.99-22.26-2.74-33.39-2.24-.39.02-.69-.81-.67-1.84,1.1-63.09,2.18-125.8,3.24-188.15ZM163.43,108.17s0,0,0,0c-1.6-.13-2.88.57-2.86,1.57,1.91,127.9,3.95,257.28,6.13,388.14.02,1.02.77,1.85,1.68,1.86,1.92.02,3.85.03,5.77.04,4.99.03,9.12-4.49,9.23-10.08,2.04-122.7,3.97-243.95,5.81-363.75.18-8.94-11.35-16.61-25.77-17.79Z"/>
      <path class="cls-5" d="M181.79,584.79c.14-7.4-1.85-13.87-8.22-13.83-1.88.01-3.76.03-5.64.05,1.14,67.1,2.32,134.58,3.53,202.44.02,1.04-.28,1.91-.67,1.95-11.13,1.13-22.26,3.52-33.39,7.15-.39.13-.86-.63-1.07-1.68C88.18,526.31,44.92,268.59,6.53,7.71c-.16-1.08,1.1-1.5,2.81-.94,57.29,18.7,114.57,29.88,171.86,33.56,56.58,3.52,96.86,7.31,120.52,21.61,23.81,13.96,31.01,38.41,24.93,75.44-17.61,108.22-36.13,217.07-55.56,326.52-4.63,25.46-18.13,46.99-39.78,55.61-1.46.58-1.79,2.65-.55,3.36,17.23,9.67,23.93,33.46,18.94,59.75-11.7,64.01-23.71,128.22-36.03,192.64-.2,1.04-.68,1.83-1.06,1.76-11.13-1.99-22.26-2.74-33.39-2.24-.39.02-.69-.81-.67-1.84,1.1-63.09,2.18-125.8,3.24-188.15ZM163.43,108.17s0,0,0,0c-1.6-.13-2.88.57-2.86,1.57,1.91,127.9,3.95,257.28,6.13,388.14.02,1.02.77,1.85,1.68,1.86,1.92.02,3.85.03,5.77.04,4.99.03,9.12-4.49,9.23-10.08,2.04-122.7,3.97-243.95,5.81-363.75.18-8.94-11.35-16.61-25.77-17.79Z"/>
    </g>
    <g>
      <path d="M387.7,569.04c-3.77.02-7.54.05-11.31.08-.78,0-1.4.84-1.38,1.87,1.14,67.1,2.31,134.58,3.52,202.44.02,1.04-.28,1.91-.67,1.95-11.13,1.14-22.26,3.53-33.39,7.18-.39.13-.86-.62-1.06-1.68-42.08-223.29-80.43-449.01-115.05-677.16-13.43-80.7,63.2-73.2,152.18-66.71,82.9,7.61,168.42,13.26,155.2,85.57-34.75,215.13-73.08,432.68-114.99,652.66-.2,1.04-.68,1.83-1.06,1.76-11.13-2-22.26-2.75-33.39-2.25-.39.02-.69-.81-.67-1.84,1.18-67.77,2.33-135.12,3.46-202.03.02-1.02-.6-1.85-1.38-1.84ZM382.06,101.74c-11.64-.79-14.45,4.29-14.38,8.84,1.89,127.03,3.91,255.5,6.07,385.43.02,1.02.77,1.85,1.68,1.86,4.4.04,8.81.06,13.21.09.91,0,1.66-.82,1.68-1.83,2.14-129.51,4.18-257.42,6.11-383.71.08-4.51-2.74-9.94-14.37-10.67Z"/>
      <path class="cls-5" d="M387.7,569.04c-3.77.02-7.54.05-11.31.08-.78,0-1.4.84-1.38,1.87,1.14,67.1,2.31,134.58,3.52,202.44.02,1.04-.28,1.91-.67,1.95-11.13,1.14-22.26,3.53-33.39,7.18-.39.13-.86-.62-1.06-1.68-42.08-223.29-80.43-449.01-115.05-677.16-13.43-80.7,63.2-73.2,152.18-66.71,82.9,7.61,168.42,13.26,155.2,85.57-34.75,215.13-73.08,432.68-114.99,652.66-.2,1.04-.68,1.83-1.06,1.76-11.13-2-22.26-2.75-33.39-2.25-.39.02-.69-.81-.67-1.84,1.18-67.77,2.33-135.12,3.46-202.03.02-1.02-.6-1.85-1.38-1.84ZM382.06,101.74c-11.64-.79-14.45,4.29-14.38,8.84,1.89,127.03,3.91,255.5,6.07,385.43.02,1.02.77,1.85,1.68,1.86,4.4.04,8.81.06,13.21.09.91,0,1.66-.82,1.68-1.83,2.14-129.51,4.18-257.42,6.11-383.71.08-4.51-2.74-9.94-14.37-10.67Z"/>
    </g>
    <g>
      <path d="M459.38,7.99s0,0,0,0c83.35,59.94,147.13,58.94,142.29,110.94-15.74,216.31-33.12,435.08-52.14,656.32-.09,1.04-.48,1.76-.87,1.61t0,0c-17.05-7.26-35.68-34.12-41.46-86.08-18.64-225.22-35.57-452.92-50.8-683.07-.07-1.09,1.26-.94,2.97.28Z"/>
      <path class="cls-5" d="M459.38,7.99s0,0,0,0c83.35,59.94,147.13,58.94,142.29,110.94-15.74,216.31-33.12,435.08-52.14,656.32-.09,1.04-.48,1.76-.87,1.61t0,0c-17.05-7.26-35.68-34.12-41.46-86.08-18.64-225.22-35.57-452.92-50.8-683.07-.07-1.09,1.26-.94,2.97.28Z"/>
    </g>
    <g>
      <path d="M676.39,775.23c-11.72,1.06-23.43,3.5-35.15,7.32-.39.13-.86-.63-1.07-1.68-48.15-254.55-91.42-512.27-129.8-773.16-.16-1.08,1.1-1.5,2.81-.94,51.61,16.84,103.22,27.59,154.83,32.24,106.14,9.08,177.56,11.99,165.03,82.69-29.76,183.76-62.16,369.3-97.19,556.61-16.25,78.5-35.21,94.9-59.46,96.92ZM671.58,104.01c-2.42-.18-4.84-.38-7.27-.58,2.93,197.05,6.19,397.6,9.77,601.67.79-.04,1.58-.09,2.38-.13,4.71-.23,7.19-5.87,7.34-13.34,3.36-194.82,6.48-386.08,9.36-573.76.13-7.21-5.59-12.7-21.58-13.86Z"/>
      <path class="cls-5" d="M676.39,775.23c-11.72,1.06-23.43,3.5-35.15,7.32-.39.13-.86-.63-1.07-1.68-48.15-254.55-91.42-512.27-129.8-773.16-.16-1.08,1.1-1.5,2.81-.94,51.61,16.84,103.22,27.59,154.83,32.24,106.14,9.08,177.56,11.99,165.03,82.69-29.76,183.76-62.16,369.3-97.19,556.61-16.25,78.5-35.21,94.9-59.46,96.92ZM671.58,104.01c-2.42-.18-4.84-.38-7.27-.58,2.93,197.05,6.19,397.6,9.77,601.67.79-.04,1.58-.09,2.38-.13,4.71-.23,7.19-5.87,7.34-13.34,3.36-194.82,6.48-386.08,9.36-573.76.13-7.21-5.59-12.7-21.58-13.86Z"/>
    </g>
    <g>
      <path d="M756.16,7.99s0,0,0,0c83.35,59.94,147.13,58.94,142.29,110.94-15.74,216.31-33.12,435.08-52.14,656.32-.09,1.04-.48,1.76-.87,1.61t0,0c-17.05-7.26-35.68-34.12-41.46-86.08-18.64-225.22-35.57-452.92-50.8-683.07-.07-1.09,1.26-.94,2.97.28Z"/>
      <path class="cls-5" d="M756.16,7.99s0,0,0,0c83.35,59.94,147.13,58.94,142.29,110.94-15.74,216.31-33.12,435.08-52.14,656.32-.09,1.04-.48,1.76-.87,1.61t0,0c-17.05-7.26-35.68-34.12-41.46-86.08-18.64-225.22-35.57-452.92-50.8-683.07-.07-1.09,1.26-.94,2.97.28Z"/>
    </g>
    <g>
      <path d="M975.27,780.7c-19.05,1.44-40.19-12.8-56.34-91.87-35.06-192.95-67.39-387.7-97-584.23-13.49-81.68,63.17-73.96,152.14-67.43,82.89,7.66,168.43,13.2,155.31,85.5-29.76,185.62-62.14,373.03-97.14,562.24-15.79,74.39-39.48,94.06-56.98,95.79ZM975.61,101.91c-11.64-.8-14.46,4.28-14.38,8.83,2.86,194.15,6.04,391.65,9.52,592.53.08,4.67.67,10.24,4.4,10.06,3.72-.17,5.24-5.79,5.33-10.46,3.42-200.5,6.6-397.26,9.52-590.28.07-4.51-2.74-9.94-14.38-10.68Z"/>
      <path class="cls-5" d="M975.27,780.7c-19.05,1.44-40.19-12.8-56.34-91.87-35.06-192.95-67.39-387.7-97-584.23-13.49-81.68,63.17-73.96,152.14-67.43,82.89,7.66,168.43,13.2,155.31,85.5-29.76,185.62-62.14,373.03-97.14,562.24-15.79,74.39-39.48,94.06-56.98,95.79ZM975.61,101.91c-11.64-.8-14.46,4.28-14.38,8.83,2.86,194.15,6.04,391.65,9.52,592.53.08,4.67.67,10.24,4.4,10.06,3.72-.17,5.24-5.79,5.33-10.46,3.42-200.5,6.6-397.26,9.52-590.28.07-4.51-2.74-9.94-14.38-10.68Z"/>
    </g>
    <g>
      <path class="cls-8" d="M206.41,608c.14-7.4-1.85-13.87-8.22-13.83-1.88.01-3.76.03-5.64.05,1.14,67.1,2.32,134.58,3.53,202.44.02,1.04-.28,1.91-.67,1.95-11.13,1.13-22.26,3.52-33.39,7.15-.39.13-.86-.63-1.07-1.68C112.8,549.52,69.54,291.8,31.15,30.92c-.16-1.08,1.1-1.5,2.81-.94,57.29,18.7,114.57,29.88,171.86,33.56,56.58,3.52,96.86,7.31,120.52,21.61,23.81,13.96,31.01,38.41,24.93,75.44-17.61,108.22-36.13,217.07-55.56,326.52-4.63,25.46-18.13,46.99-39.78,55.61-1.46.58-1.79,2.65-.55,3.36,17.23,9.67,23.94,33.46,18.94,59.75-11.7,64.01-23.71,128.22-36.03,192.64-.2,1.04-.68,1.83-1.06,1.76-11.13-1.99-22.26-2.74-33.39-2.24-.39.02-.69-.81-.67-1.84,1.1-63.09,2.18-125.8,3.24-188.15ZM188.05,131.38s0,0,0,0c-1.6-.13-2.88.57-2.86,1.57,1.91,127.9,3.95,257.28,6.13,388.14.02,1.02.77,1.85,1.68,1.86,1.92.02,3.85.03,5.77.04,4.99.03,9.12-4.49,9.23-10.08,2.04-122.7,3.97-243.95,5.81-363.75.18-8.94-11.35-16.61-25.77-17.79Z"/>
      <path class="cls-6" d="M206.41,608c.14-7.4-1.85-13.87-8.22-13.83-1.88.01-3.76.03-5.64.05,1.14,67.1,2.32,134.58,3.53,202.44.02,1.04-.28,1.91-.67,1.95-11.13,1.13-22.26,3.52-33.39,7.15-.39.13-.86-.63-1.07-1.68C112.8,549.52,69.54,291.8,31.15,30.92c-.16-1.08,1.1-1.5,2.81-.94,57.29,18.7,114.57,29.88,171.86,33.56,56.58,3.52,96.86,7.31,120.52,21.61,23.81,13.96,31.01,38.41,24.93,75.44-17.61,108.22-36.13,217.07-55.56,326.52-4.63,25.46-18.13,46.99-39.78,55.61-1.46.58-1.79,2.65-.55,3.36,17.23,9.67,23.94,33.46,18.94,59.75-11.7,64.01-23.71,128.22-36.03,192.64-.2,1.04-.68,1.83-1.06,1.76-11.13-1.99-22.26-2.74-33.39-2.24-.39.02-.69-.81-.67-1.84,1.1-63.09,2.18-125.8,3.24-188.15ZM188.05,131.38s0,0,0,0c-1.6-.13-2.88.57-2.86,1.57,1.91,127.9,3.95,257.28,6.13,388.14.02,1.02.77,1.85,1.68,1.86,1.92.02,3.85.03,5.77.04,4.99.03,9.12-4.49,9.23-10.08,2.04-122.7,3.97-243.95,5.81-363.75.18-8.94-11.35-16.61-25.77-17.79Z"/>
    </g>
    <g>
      <path class="cls-1" d="M412.32,592.25c-3.77.02-7.54.05-11.31.08-.78,0-1.4.84-1.38,1.87,1.14,67.1,2.31,134.58,3.52,202.45.02,1.04-.28,1.91-.67,1.95-11.13,1.14-22.26,3.53-33.39,7.18-.39.13-.86-.63-1.06-1.68-42.08-223.29-80.43-449.01-115.05-677.16-13.43-80.7,63.2-73.2,152.18-66.71,82.9,7.61,168.42,13.26,155.2,85.57-34.75,215.13-73.08,432.68-114.99,652.66-.2,1.04-.67,1.83-1.06,1.76-11.13-2-22.26-2.75-33.39-2.25-.39.02-.69-.81-.67-1.84,1.18-67.77,2.33-135.12,3.46-202.03.02-1.02-.6-1.85-1.38-1.84ZM406.68,124.95c-11.64-.79-14.45,4.29-14.38,8.84,1.89,127.03,3.91,255.5,6.07,385.43.02,1.02.77,1.85,1.68,1.86,4.4.04,8.81.06,13.21.09.91,0,1.66-.82,1.68-1.83,2.14-129.51,4.18-257.42,6.11-383.71.08-4.51-2.74-9.94-14.37-10.67Z"/>
      <path class="cls-6" d="M412.32,592.25c-3.77.02-7.54.05-11.31.08-.78,0-1.4.84-1.38,1.87,1.14,67.1,2.31,134.58,3.52,202.45.02,1.04-.28,1.91-.67,1.95-11.13,1.14-22.26,3.53-33.39,7.18-.39.13-.86-.63-1.06-1.68-42.08-223.29-80.43-449.01-115.05-677.16-13.43-80.7,63.2-73.2,152.18-66.71,82.9,7.61,168.42,13.26,155.2,85.57-34.75,215.13-73.08,432.68-114.99,652.66-.2,1.04-.67,1.83-1.06,1.76-11.13-2-22.26-2.75-33.39-2.25-.39.02-.69-.81-.67-1.84,1.18-67.77,2.33-135.12,3.46-202.03.02-1.02-.6-1.85-1.38-1.84ZM406.68,124.95c-11.64-.79-14.45,4.29-14.38,8.84,1.89,127.03,3.91,255.5,6.07,385.43.02,1.02.77,1.85,1.68,1.86,4.4.04,8.81.06,13.21.09.91,0,1.66-.82,1.68-1.83,2.14-129.51,4.18-257.42,6.11-383.71.08-4.51-2.74-9.94-14.37-10.67Z"/>
    </g>
    <g>
      <path class="cls-3" d="M484,31.2h0c83.35,59.94,147.13,58.94,142.29,110.94-15.74,216.31-33.12,435.08-52.14,656.32-.09,1.04-.48,1.76-.87,1.61t0,0c-17.05-7.26-35.68-34.12-41.46-86.08-18.64-225.22-35.57-452.91-50.8-683.07-.07-1.09,1.26-.94,2.97.28Z"/>
      <path class="cls-6" d="M484,31.2h0c83.35,59.94,147.13,58.94,142.29,110.94-15.74,216.31-33.12,435.08-52.14,656.32-.09,1.04-.48,1.76-.87,1.61t0,0c-17.05-7.26-35.68-34.12-41.46-86.08-18.64-225.22-35.57-452.91-50.8-683.07-.07-1.09,1.26-.94,2.97.28Z"/>
    </g>
    <g>
      <path class="cls-2" d="M701.01,798.44c-11.72,1.06-23.43,3.5-35.15,7.32-.39.13-.86-.63-1.07-1.68-48.15-254.55-91.41-512.27-129.8-773.16-.16-1.08,1.1-1.5,2.81-.94,51.61,16.84,103.22,27.59,154.83,32.24,106.14,9.08,177.56,11.99,165.03,82.69-29.77,183.76-62.16,369.3-97.19,556.61-16.25,78.5-35.21,94.9-59.46,96.92ZM696.2,127.22c-2.42-.18-4.84-.38-7.27-.58,2.93,197.05,6.19,397.6,9.77,601.67.79-.04,1.58-.09,2.38-.13,4.71-.23,7.19-5.87,7.34-13.34,3.36-194.82,6.48-386.08,9.36-573.76.13-7.21-5.59-12.7-21.58-13.86Z"/>
      <path class="cls-6" d="M701.01,798.44c-11.72,1.06-23.43,3.5-35.15,7.32-.39.13-.86-.63-1.07-1.68-48.15-254.55-91.41-512.27-129.8-773.16-.16-1.08,1.1-1.5,2.81-.94,51.61,16.84,103.22,27.59,154.83,32.24,106.14,9.08,177.56,11.99,165.03,82.69-29.77,183.76-62.16,369.3-97.19,556.61-16.25,78.5-35.21,94.9-59.46,96.92ZM696.2,127.22c-2.42-.18-4.84-.38-7.27-.58,2.93,197.05,6.19,397.6,9.77,601.67.79-.04,1.58-.09,2.38-.13,4.71-.23,7.19-5.87,7.34-13.34,3.36-194.82,6.48-386.08,9.36-573.76.13-7.21-5.59-12.7-21.58-13.86Z"/>
    </g>
    <g>
      <path class="cls-4" d="M780.78,31.2s0,0,0,0c83.35,59.94,147.13,58.94,142.29,110.94-15.74,216.31-33.12,435.08-52.14,656.32-.09,1.04-.48,1.76-.87,1.61t0,0c-17.05-7.26-35.68-34.12-41.46-86.08-18.64-225.22-35.57-452.91-50.8-683.07-.07-1.09,1.26-.94,2.97.28Z"/>
      <path class="cls-6" d="M780.78,31.2s0,0,0,0c83.35,59.94,147.13,58.94,142.29,110.94-15.74,216.31-33.12,435.08-52.14,656.32-.09,1.04-.48,1.76-.87,1.61t0,0c-17.05-7.26-35.68-34.12-41.46-86.08-18.64-225.22-35.57-452.91-50.8-683.07-.07-1.09,1.26-.94,2.97.28Z"/>
    </g>
    <g>
      <path class="cls-7" d="M999.89,803.91c-19.05,1.44-40.19-12.8-56.34-91.87-35.06-192.95-67.39-387.7-97-584.23-13.49-81.68,63.17-73.96,152.14-67.43,82.89,7.66,168.43,13.2,155.31,85.5-29.75,185.62-62.14,373.03-97.14,562.24-15.78,74.39-39.48,94.06-56.98,95.79ZM1000.23,125.12c-11.64-.8-14.46,4.28-14.38,8.83,2.86,194.15,6.04,391.65,9.52,592.53.09,4.67.67,10.24,4.4,10.06,3.72-.17,5.24-5.79,5.33-10.46,3.42-200.5,6.6-397.26,9.52-590.28.07-4.51-2.74-9.94-14.38-10.68Z"/>
      <path class="cls-6" d="M999.89,803.91c-19.05,1.44-40.19-12.8-56.34-91.87-35.06-192.95-67.39-387.7-97-584.23-13.49-81.68,63.17-73.96,152.14-67.43,82.89,7.66,168.43,13.2,155.31,85.5-29.75,185.62-62.14,373.03-97.14,562.24-15.78,74.39-39.48,94.06-56.98,95.79ZM1000.23,125.12c-11.64-.8-14.46,4.28-14.38,8.83,2.86,194.15,6.04,391.65,9.52,592.53.09,4.67.67,10.24,4.4,10.06,3.72-.17,5.24-5.79,5.33-10.46,3.42-200.5,6.6-397.26,9.52-590.28.07-4.51-2.74-9.94-14.38-10.68Z"/>
    </g>
  </g>
</svg>